<svg width="24" height="14" viewBox="0 0 24 14" fill="none" xmlns="http://www.w3.org/2000/svg">
<path d="M12.0009 14C11.4713 13.9978 10.9643 13.7856 10.5909 13.41L0.5909 3.41005C0.263247 3.02745 0.0920348 2.53529 0.111477 2.03194C0.130919 1.52859 0.339584 1.05111 0.695773 0.694918C1.05196 0.338729 1.52944 0.130064 2.03279 0.110622C2.53614 0.0911798 3.02829 0.262392 3.41089 0.590044L12.0009 9.17005L20.5909 0.590044C20.9735 0.262392 21.4657 0.0911798 21.969 0.110622C22.4724 0.130064 22.9499 0.338729 23.306 0.694918C23.6622 1.05111 23.8709 1.52859 23.8903 2.03194C23.9098 2.53529 23.7386 3.02745 23.4109 3.41005L13.4109 13.41C13.0376 13.7856 12.5305 13.9978 12.0009 14Z" fill="#DC3545"/>
</svg>
