<svg width="24" height="14" viewBox="0 0 24 14" fill="none" xmlns="http://www.w3.org/2000/svg">
<path d="M12.0009 14C11.4713 13.9978 10.9643 13.7856 10.5909 13.41L0.590915 3.41C0.263262 3.0274 0.0920499 2.53524 0.111492 2.03189C0.130934 1.52854 0.339599 1.05106 0.695788 0.694873C1.05198 0.338684 1.52946 0.130019 2.03281 0.110577C2.53616 0.0911343 3.02831 0.262346 3.41091 0.589999L12.0009 9.17L20.5909 0.589999C20.9735 0.262346 21.4657 0.0911343 21.969 0.110577C22.4724 0.130019 22.9499 0.338684 23.306 0.694873C23.6622 1.05106 23.8709 1.52854 23.8903 2.03189C23.9098 2.53524 23.7386 3.0274 23.4109 3.41L13.4109 13.41C13.0376 13.7856 12.5305 13.9978 12.0009 14Z" fill="#015CB5"/>
</svg>
