<svg width="519" height="519" viewBox="0 0 519 519" fill="none" xmlns="http://www.w3.org/2000/svg">
<g clip-path="url(#clip0_505_8)">
<path d="M259.5 519C402.818 519 519 402.818 519 259.5C519 116.182 402.818 0 259.5 0C116.182 0 0 116.182 0 259.5C0 402.818 116.182 519 259.5 519Z" fill="url(#paint0_radial_505_8)"/>
<path fill-rule="evenodd" clip-rule="evenodd" d="M253.087 106.806C251.764 107.44 250.936 108.791 250.971 110.258C251.486 131.549 251.743 143.89 251.743 147.281V156.873L250.138 160.231C248.336 164.001 247.405 165.565 234.203 187.013C229.033 195.413 222.199 206.923 219.018 212.593C215.226 219.35 213.241 226.971 213.255 234.72L213.443 338.23C213.466 350.917 223.757 361.189 236.443 361.189H349.642L353.769 359.164C363.035 354.615 369.839 344.033 369.888 334.09C369.907 330.256 369.785 329.759 367.839 325.748C366.701 323.402 365.829 321.447 365.902 321.404C365.975 321.361 368.111 320.411 370.649 319.293C381.553 314.489 387.97 306.853 388.434 298.129C388.68 293.523 387.601 290.34 383.959 284.919C382.491 282.733 381.289 280.816 381.289 280.659C381.289 280.502 381.645 280.374 382.079 280.374C382.514 280.374 384.638 279.457 386.801 278.337C396.678 273.22 402.333 263.507 400.73 254.412C399.662 248.353 396.47 243.535 389.378 237.278L387.054 235.228L389.724 232.372C393.169 228.687 395.259 225.655 396.631 222.352C397.533 220.181 397.734 218.79 397.743 214.648C397.761 206.748 395.935 201.453 391.613 196.877C388.718 193.812 385.488 191.817 380.923 190.275L377.173 189.007C325.678 188.723 299.931 188.518 299.932 188.392C299.934 188.203 300.369 184.487 300.898 180.135C302.11 170.168 302.242 151.978 301.15 145.363C298.041 126.524 288.022 111.768 274.839 106.611C271.538 105.32 270.453 105.138 265.303 105.02C262.107 104.946 258.54 105.083 257.376 105.325C256.213 105.566 254.282 106.233 253.087 106.806ZM146 218.377H189.858C193.724 218.377 196.858 221.511 196.858 225.377V364C196.858 367.866 193.724 371 189.858 371H146C142.134 371 139 367.866 139 364V225.377C139 221.511 142.134 218.377 146 218.377Z" fill="white"/>
</g>
<defs>
<radialGradient id="paint0_radial_505_8" cx="0" cy="0" r="1" gradientUnits="userSpaceOnUse" gradientTransform="translate(25950 7995.2) scale(47849.7)">
<stop stop-color="#DC3545"/>
<stop offset="1" stop-color="#DC3545"/>
</radialGradient>
<clipPath id="clip0_505_8">
<rect width="519" height="519" fill="white"/>
</clipPath>
</defs>
</svg>
