<svg width="20" height="28" viewBox="0 0 20 28" fill="none" xmlns="http://www.w3.org/2000/svg">
<path d="M10.0045 0.166992C4.67835 0.167393 0.335362 4.50455 0.334961 9.83069C0.334829 13.0922 2.22323 15.4294 3.14735 17.2777C3.15885 17.3002 3.17119 17.3224 3.18437 17.3441L9.18414 27.3476C9.27313 27.4952 9.39873 27.6172 9.54878 27.702C9.69883 27.7867 9.86823 27.8312 10.0406 27.8312C10.2129 27.8312 10.3823 27.7867 10.5323 27.702C10.6824 27.6172 10.808 27.4952 10.897 27.3476L16.8987 17.3441C16.9119 17.3224 16.9242 17.3002 16.9357 17.2777C17.8727 15.4037 19.661 13.0229 19.6661 9.83069C19.6657 4.50455 15.3306 0.167393 10.0045 0.166992Z" fill="#DC3545"/>
<path d="M10.0042 4.7959C7.23417 4.7959 4.96259 7.0601 4.96259 9.83015C4.96258 12.6002 7.23416 14.8644 10.0042 14.8644C12.7743 14.8644 15.0385 12.6002 15.0385 9.83015C15.0385 7.0601 12.7743 4.7959 10.0042 4.7959ZM10.0042 6.79631C11.6934 6.79631 13.0381 8.14094 13.0381 9.83015C13.0381 11.5194 11.6934 12.8714 10.0042 12.8714C8.315 12.8714 6.963 11.5194 6.963 9.83015C6.963 8.14094 8.315 6.79631 10.0042 6.79631Z" fill="white"/>
<path d="M10.0397 0.174805V27.83C10.212 27.8303 10.3816 27.786 10.5318 27.7015C10.682 27.617 10.8078 27.495 10.8971 27.3476L16.8988 17.3441C16.9119 17.3224 16.9243 17.3002 16.9358 17.2777C17.8728 15.4037 19.6611 13.0229 19.6662 9.83069C19.6658 4.51706 15.3486 0.195512 10.0397 0.174805Z" fill="#DC3545"/>
<path d="M10.0397 4.80347V6.80927C11.7096 6.83081 13.0376 8.15511 13.0376 9.83062C13.0376 11.5062 11.7096 12.8362 10.0397 12.8578V14.8558C12.7926 14.8354 15.0375 12.5882 15.0375 9.83062C15.0375 7.07308 12.7926 4.82377 10.0397 4.80347Z" fill="white"/>
</svg>
