<svg width="16" height="18" viewBox="0 0 16 18" fill="none" xmlns="http://www.w3.org/2000/svg">
<path d="M12.0606 8.06055L12.0606 8.06061L12.0666 8.05436C12.3399 7.77145 12.4911 7.39255 12.4877 6.99925C12.4842 6.60596 12.3265 6.22974 12.0484 5.95163C11.7703 5.67352 11.394 5.51576 11.0007 5.51235C10.6075 5.50893 10.2285 5.66012 9.94564 5.93336L9.94559 5.9333L9.93945 5.93945L7 8.87889L6.06055 7.93945L6.06061 7.93939L6.05436 7.93336C5.77145 7.66012 5.39255 7.50893 4.99925 7.51235C4.60596 7.51576 4.22974 7.67352 3.95163 7.95163C3.67352 8.22974 3.51576 8.60596 3.51234 8.99925C3.50893 9.39255 3.66012 9.77145 3.93336 10.0544L3.9333 10.0544L3.93945 10.0606L5.93945 12.0606L5.9395 12.0606C6.22079 12.3418 6.60225 12.4998 7 12.4998C7.39775 12.4998 7.77921 12.3418 8.0605 12.0606L8.06055 12.0606L12.0606 8.06055ZM0.598695 4.48636C3.31404 4.35953 5.91372 3.34745 7.99996 1.60524C10.0862 3.34791 12.6861 4.36035 15.4017 4.48734C15.4669 4.98197 15.5 5.48792 15.5 6.001C15.5 10.945 12.3793 15.1615 8.00005 16.7862C3.62073 15.1605 0.5 10.944 0.5 6C0.5 5.48659 0.533679 4.9816 0.598695 4.48636Z" fill="#015CB5" stroke="#015CB5"/>
</svg>
