<svg width="14" height="12" viewBox="0 0 14 12" fill="none" xmlns="http://www.w3.org/2000/svg">
<path d="M13.9305 3.05669C13.9305 3.29494 13.8471 3.49744 13.6803 3.66421L7.2113 10.1325L5.99614 11.3475C5.82935 11.5143 5.62682 11.5977 5.38856 11.5977C5.15029 11.5977 4.94776 11.5143 4.78097 11.3475L3.56581 10.1325L0.331322 6.89835C0.164534 6.73158 0.0811405 6.52908 0.0811405 6.29084C0.0811405 6.05259 0.164534 5.85009 0.331322 5.68332L1.54649 4.46828C1.71327 4.30151 1.9158 4.21813 2.15407 4.21813C2.39234 4.21813 2.59487 4.30151 2.76165 4.46828L5.38856 7.10384L11.2499 1.23414C11.4167 1.06737 11.6193 0.983986 11.8575 0.983986C12.0958 0.983986 12.2983 1.06737 12.4651 1.23414L13.6803 2.44918C13.8471 2.61595 13.9305 2.81845 13.9305 3.05669Z" fill="#019E01" fill-opacity="0.79"/>
</svg>
